HIERARCHY
ROOT Hips
{
    OFFSET 0.000000 0.000000 0.000000
    CHANNELS 6 Xposition Yposition Zposition Zrotation Xrotation Yrotation
    JOINT Spine
    {
        OFFSET -0.000000 14.517291 0.000000
        CHANNELS 3 Zrotation Xrotation Yrotation
        JOINT Spine1
        {
            OFFSET -0.000000 37.558300 0.000000
            CHANNELS 3 Zrotation Xrotation Yrotation
            JOINT Neck
            {
                OFFSET -0.000000 37.404057 3.400369
                CHANNELS 3 Zrotation Xrotation Yrotation
                JOINT Head
                {
                    OFFSET -0.000000 24.785618 -3.540803
                    CHANNELS 3 Zrotation Xrotation Yrotation
                    End Site
                    {
                        OFFSET -0.000000 35.408028 0.000000
                    }
                }
            }
            JOINT LeftShoulder
            {
                OFFSET 6.992933 33.973492 -0.192664
                CHANNELS 3 Zrotation Xrotation Yrotation
                JOINT LeftArm
                {
                    OFFSET 21.527611 0.000000 0.000000
                    CHANNELS 3 Zrotation Xrotation Yrotation
                    JOINT LeftForeArm
                    {
                        OFFSET 56.353916 0.000000 0.000000
                        CHANNELS 3 Zrotation Xrotation Yrotation
                        JOINT LeftHand
                        {
                            OFFSET 47.774071 0.000000 0.000000
                            CHANNELS 3 Zrotation Xrotation Yrotation
                            End Site
                            {
                                OFFSET 26.556021 0.000000 0.000000
                            }
                        }
                    }
                }
            }
            JOINT RightShoulder
            {
                OFFSET -7.065357 33.973492 -0.192664
                CHANNELS 3 Zrotation Xrotation Yrotation
                JOINT RightArm
                {
                    OFFSET -21.527611 0.000000 0.000000
                    CHANNELS 3 Zrotation Xrotation Yrotation
                    JOINT RightForeArm
                    {
                        OFFSET -56.353916 0.000000 0.000000
                        CHANNELS 3 Zrotation Xrotation Yrotation
                        JOINT RightHand
                        {
                            OFFSET -47.774071 0.000000 0.000000
                            CHANNELS 3 Zrotation Xrotation Yrotation
                            End Site
                            {
                                OFFSET -26.556021 0.000000 0.000000
                            }
                        }
                    }
                }
            }
        }
    }
    JOINT LeftUpLeg
    {
        OFFSET 17.704014 0.000000 0.000000
        CHANNELS 3 Zrotation Xrotation Yrotation
        JOINT LeftLeg
        {
            OFFSET -0.000000 -81.181816 0.000000
            CHANNELS 3 Zrotation Xrotation Yrotation
            JOINT LeftFoot
            {
                OFFSET -0.000000 -62.821102 0.000000
                CHANNELS 3 Zrotation Xrotation Yrotation
                JOINT LeftToeBase
                {
                    OFFSET -0.000000 -11.507608 26.556021
                    CHANNELS 3 Zrotation Xrotation Yrotation
                    End Site
                    {
                        OFFSET -0.000000 0.000000 7.081605
                    }
                }
            }
        }
    }
    JOINT RightUpLeg
    {
        OFFSET -17.704014 0.000000 0.000000
        CHANNELS 3 Zrotation Xrotation Yrotation
        JOINT RightLeg
        {
            OFFSET -0.000000 -81.181816 0.000000
            CHANNELS 3 Zrotation Xrotation Yrotation
            JOINT RightFoot
            {
                OFFSET -0.000000 -62.821102 0.000000
                CHANNELS 3 Zrotation Xrotation Yrotation
                JOINT RightToeBase
                {
                    OFFSET -0.000000 -11.507608 26.556021
                    CHANNELS 3 Zrotation Xrotation Yrotation
                    End Site
                    {
                        OFFSET -0.000000 0.000000 7.081605
                    }
                }
            }
        }
    }
}
MOTION
Frames:    5
Frame Time:    0.008333
13.388247    155.569290    -18.464869    -1.789696    3.158682    -24.801384    7.338248    3.291877    17.692142    -5.302240    -2.904537    5.833248    7.321856    -4.198394    -1.916685    1.308482    7.007841    -3.251249    1.469018    1.143265    -4.202723    -47.698574    11.687879    -32.523510    -5.979728    -17.325848    -126.384926    -0.792799    -28.248499    -2.105804    -16.231918    -0.990949    10.343421    31.487028    -19.943033    79.071533    4.487316    -16.565800    18.253235    12.150413    -12.563986    43.404114    19.266054    -29.726686    0.212463    -15.271933    24.091591    -9.515425    -2.612056    4.668025    41.768623    0.000000    0.000000    0.000000    -10.029430    6.950227    -32.017933    2.592328    21.766331    -10.948233    -0.812332    -18.075184    -12.749799    0.000000    0.000000    0.000000    
13.358426    155.606491    -18.431425    -1.790337    3.180062    -24.612043    7.303036    3.253045    17.587837    -5.253736    -2.873652    5.799960    7.322381    -4.212581    -1.940282    1.299775    6.989435    -3.277325    1.491879    1.106433    -4.262136    -47.632885    11.757592    -32.571461    -5.939651    -17.454065    -126.348564    -0.857795    -28.286364    -2.134509    -16.212278    -1.035383    10.296858    31.439240    -19.940001    79.032906    4.487656    -16.531240    18.254704    12.145753    -12.528940    43.419075    19.154129    -29.754879    0.001376    -15.214856    23.973421    -9.561610    -2.631572    4.746250    41.784992    0.000000    0.000000    0.000000    -9.852913    7.082262    -31.768044    2.551007    21.511040    -10.841506    -0.247406    -18.605335    -12.232527    0.000000    0.000000    0.000000    
13.324450    155.639664    -18.400820    -1.791307    3.205155    -24.406130    7.256027    3.217045    17.487913    -5.189057    -2.883455    5.766627    7.344519    -4.230333    -1.963123    1.259162    7.031363    -3.310218    1.520080    1.118911    -4.338931    -47.565990    11.805682    -32.651951    -5.928821    -17.540073    -126.310974    -0.844768    -28.338413    -2.128825    -16.190727    -1.036513    10.241297    31.416836    -19.954481    79.008362    4.504190    -16.511143    18.267618    12.102521    -12.532320    43.388062    19.041250    -29.791306    -0.201241    -15.153091    23.853746    -9.602140    -2.647772    4.826560    41.777527    0.000000    0.000000    0.000000    -9.669967    7.226965    -31.486679    2.523982    21.253475    -10.732358    0.354121    -19.072153    -11.751290    0.000000    0.000000    0.000000    
13.283655    155.671799    -18.378683    -1.790493    3.228866    -24.205193    7.201283    3.176490    17.394304    -5.112284    -2.884590    5.735946    7.362299    -4.239934    -1.990927    1.211551    7.063057    -3.347344    1.545040    1.113011    -4.421826    -47.521774    11.855424    -32.725468    -5.911854    -17.631926    -126.272598    -0.852310    -28.384300    -2.145994    -16.180895    -1.057216    10.197793    31.498226    -20.049116    79.032204    4.640715    -16.384327    18.197197    12.011672    -12.452455    43.430946    18.938519    -29.843645    -0.357652    -15.197754    23.754475    -9.385836    -2.515819    4.972979    41.678879    0.000000    0.000000    0.000000    -9.481370    7.370181    -31.223566    2.465776    20.996555    -10.588097    1.022843    -19.611332    -11.206439    0.000000    0.000000    0.000000    
13.241323    155.696152    -18.368557    -1.784257    3.262891    -24.005911    7.129370    3.124103    17.317999    -5.003806    -2.903230    5.710690    7.372275    -4.199806    -2.029762    1.153001    7.050805    -3.391680    1.556320    1.154359    -4.520814    -47.490555    11.857503    -32.824226    -5.897497    -17.687241    -126.226288    -0.912728    -28.398621    -2.156219    -16.178988    -1.044297    10.165221    31.454319    -20.066460    78.971313    4.632365    -16.385328    18.212904    12.001299    -12.457004    43.429920    18.845097    -29.896427    -0.515519    -15.143854    23.649641    -9.442149    -2.526949    5.060948    41.658188    0.000000    0.000000    0.000000    -9.267785    7.529182    -30.979763    2.405973    20.760597    -10.338469    1.498048    -20.206810    -10.820921    0.000000    0.000000    0.000000    
